<?xml version='1.0' encoding='iso-8859-1'?>
<!DOCTYPE svg PUBLIC '-//W3C//DTD SVG 1.1//EN' 'http://www.w3.org/Graphics/SVG/1.1/DTD/svg11.dtd'>
<svg version="1.1" xmlns="http://www.w3.org/2000/svg" viewBox="0 0 297 297" xmlns:xlink="http://www.w3.org/1999/xlink" enable-background="new 0 0 297 297">
  <path d="m224.253,30.191h-28.257v-20.572c0-5.312-4.307-9.619-9.62-9.619h-75.753c-5.312,0-9.619,4.307-9.619,9.619v20.572h-28.257c-5.312,0-9.62,4.307-9.62,9.619v217.379c0,5.312 4.307,9.619 9.62,9.619h28.257v20.572c0,5.312 4.307,9.619 9.619,9.619h75.753c5.312,0 9.62-4.307 9.62-9.619v-20.572h28.257c5.312,0 9.619-4.307 9.619-9.619v-217.378c0-5.312-4.307-9.62-9.619-9.62zm-85.058,217.379c-0.181-0.117-0.358-0.236-0.549-0.342l-56.28-31.267v-25.608l102.991,57.217h-46.162zm-56.829-79.225v-25.608l132.267,73.482v25.608l-132.267-73.482zm132.268,25.866l-17.282-9.601 17.282-8.641v18.242zm0-39.752l-37.659,18.83-23.193-12.885 60.852-33.807v27.862zm0-49.869l-80.659,44.81-23.215-12.898 103.875-57.709v25.797zm-.001-47.804l-123.682,68.713-8.586-4.77v-21.766l88.472-49.533h43.795v7.356zm-94.39-37.547h56.514v10.952h-56.514v-10.952zm10.968,30.191l-48.845,27.136v-27.136h48.845zm-48.845,188.539l17.282,9.601h-17.282v-9.601zm94.391,39.792h-56.514v-10.952h56.514v10.952z"/>
</svg>
